<svg xmlns="http://www.w3.org/2000/svg" xmlns:xlink="http://www.w3.org/1999/xlink" viewBox="0 0 1079.76 256.2"><defs><style>.cls-1{fill:none;}.cls-2{fill:#333;}.cls-3{clip-path:url(#clip-path);}.cls-4{fill:#4895ef;}.cls-5{fill:#4361ee;}.cls-6{fill:#b5179e;}.cls-7{fill:#f72585;}.cls-8{fill:#3a0ca3;}</style><clipPath id="clip-path"><circle class="cls-1" cx="127.74" cy="128.1" r="110"/></clipPath></defs><title>v0Logotipo</title><g id="Capa_2" data-name="Capa 2"><g id="Capa_1-2" data-name="Capa 1"><path class="cls-2" d="M391.59,131.62a44.3,44.3,0,0,1,12.19,15.12,43.95,43.95,0,0,1-2.07,42.56q-6.58,10.37-19.15,16.34t-29.63,6H289.52v-170h61q17.33,0,29.51,5.74t18.3,15.48a40.64,40.64,0,0,1,6.09,22q0,15.12-8.17,25a45.71,45.71,0,0,1-21.58,14.26A35.91,35.91,0,0,1,391.59,131.62ZM311.71,115H349q15.6,0,24.14-7.32t8.54-20.24q0-12.93-8.54-20.25t-24.63-7.31H311.71Zm65.12,70.49q9.27-7.8,9.27-21.71,0-14.15-9.75-22.32t-26.1-8.17H311.71v60H351Q367.57,193.32,376.83,185.52Z"/><path class="cls-2" d="M537.32,76V209.66H515.13V189.91a43.16,43.16,0,0,1-17.69,16,54.62,54.62,0,0,1-25,5.73,59.92,59.92,0,0,1-28.05-6.46,46.89,46.89,0,0,1-19.63-19.39q-7.2-12.91-7.2-31.46V76h21.95v75.36q0,19.75,10,30.37t27.32,10.61q17.81,0,28.05-11t10.25-32V76Z"/><path class="cls-2" d="M675.86,150.88H569q1.22,19.76,13.53,30.86t29.88,11.09q14.38,0,24-6.7A35.5,35.5,0,0,0,650,168.2h23.91a57.48,57.48,0,0,1-21.47,31.34q-16.1,12.08-40,12.07-19,0-34-8.53a60.41,60.41,0,0,1-23.54-24.27q-8.53-15.74-8.54-36.46t8.3-36.34a58.15,58.15,0,0,1,23.29-24q15-8.42,34.51-8.41,19,0,33.66,8.29a57.39,57.39,0,0,1,22.56,22.8q7.92,14.52,7.93,32.81A132.64,132.64,0,0,1,675.86,150.88ZM648.05,111A36.48,36.48,0,0,0,632.81,97.1a47.58,47.58,0,0,0-21.34-4.75q-16.83,0-28.66,10.73t-13.54,29.75h84.39Q653.66,120.15,648.05,111Z"/><path class="cls-2" d="M806.83,150.88H700q1.21,19.76,13.54,30.86t29.88,11.09q14.39,0,24-6.7A35.57,35.57,0,0,0,781,168.2h23.9a57.46,57.46,0,0,1-21.46,31.34q-16.11,12.08-40,12.07-19,0-34-8.53a60.41,60.41,0,0,1-23.54-24.27q-8.54-15.74-8.53-36.46T685.61,106A58.21,58.21,0,0,1,708.9,82q15-8.42,34.52-8.41,19,0,33.65,8.29a57.39,57.39,0,0,1,22.56,22.8q7.93,14.52,7.93,32.81A129.78,129.78,0,0,1,806.83,150.88ZM779,111A36.48,36.48,0,0,0,763.78,97.1a47.55,47.55,0,0,0-21.34-4.75q-16.83,0-28.66,10.73t-13.54,29.75h84.39Q784.63,120.15,779,111Z"/><path class="cls-2" d="M921.22,90.27q15.12,14.76,15.12,42.56v78.78h-22V136q0-20-10-30.62t-27.32-10.6q-17.55,0-27.93,11t-10.36,32v73.9h-22.2V78h22.2V97a44,44,0,0,1,17.93-15.85,55.59,55.59,0,0,1,25-5.61Q906.09,75.52,921.22,90.27Z"/><path class="cls-2" d="M952.44,106.13a60.17,60.17,0,0,1,22.8-24,62.58,62.58,0,0,1,32.32-8.53q17.57,0,30.49,7.56t19.27,19V75.76h22.44V209.42h-22.44V184.54q-6.58,11.72-19.64,19.39t-30.36,7.68a60.51,60.51,0,0,1-32.2-8.78,61.43,61.43,0,0,1-22.68-24.63q-8.3-15.85-8.3-36.1Q944.14,121.61,952.44,106.13Zm98.78,9.88a43.16,43.16,0,0,0-16.47-17.2,46.64,46.64,0,0,0-45.48-.12,42.4,42.4,0,0,0-16.34,17.07q-6.1,11.22-6.1,26.34,0,15.38,6.1,26.71a43.15,43.15,0,0,0,16.34,17.32,44.22,44.22,0,0,0,22.68,6,44.87,44.87,0,0,0,22.8-6,43,43,0,0,0,16.47-17.32q6.09-11.34,6.1-26.46T1051.22,116Z"/><g class="cls-3"><polygon class="cls-4" points="225.7 131.15 255.48 160.94 160.51 255.92 160.51 196.34 225.7 131.15"/><rect class="cls-5" x="172.04" y="61.19" width="42.13" height="134.32" transform="translate(-34.2 174.14) rotate(-45)"/><rect class="cls-6" x="41.32" y="60.85" width="42.13" height="134.32" transform="translate(-72.24 81.6) rotate(-45)"/><polygon class="cls-7" points="95.41 0 95.41 59.58 29.79 125.2 0 95.41 95.41 0"/><polygon class="cls-8" points="225.59 0.8 225.59 60.37 29.76 256.2 29.97 196.41 225.59 0.8"/></g></g></g></svg>